<svg width="24" height="23" viewBox="0 0 24 23" fill="none" xmlns="http://www.w3.org/2000/svg">
<path d="M20.9699 15.3313H6.83146L7.13457 17.0348H19.9988C20.6311 17.0345 21.2465 17.2442 21.7522 17.6322C22.2579 18.0203 22.6266 18.5658 22.8027 19.1866C22.9789 19.8074 22.9529 20.4699 22.7288 21.0744C22.5047 21.6788 22.0946 22.1924 21.5602 22.538C21.0258 22.8835 20.396 23.0423 19.7657 22.9903C19.1353 22.9384 18.5386 22.6785 18.0653 22.2499C17.5919 21.8212 17.2676 21.247 17.1412 20.6137C17.0148 19.9804 17.0931 19.3222 17.3643 18.7383H10.1341C10.3681 19.2414 10.4596 19.8014 10.3981 20.3549C10.3366 20.9084 10.1247 21.4332 9.78627 21.8698C9.44788 22.3065 8.99657 22.6375 8.48352 22.8254C7.97047 23.0132 7.41619 23.0504 6.88352 22.9327C6.35085 22.815 5.8611 22.5471 5.46979 22.1594C5.07848 21.7716 4.80126 21.2796 4.66955 20.7391C4.53785 20.1986 4.55693 19.6311 4.72464 19.1011C4.89235 18.5711 5.20197 18.0997 5.61841 17.7404C5.56117 17.6125 5.51964 17.4778 5.49477 17.3395L2.71348 1.70348H0.833283C0.612282 1.70348 0.400334 1.61375 0.244063 1.45401C0.087792 1.29428 0 1.07764 0 0.851741C0 0.625845 0.087792 0.409202 0.244063 0.249469C0.400334 0.0897369 0.612282 1.99022e-07 0.833283 1.99022e-07H2.71338C3.10373 -0.000192637 3.48176 0.139751 3.78146 0.395403C4.08116 0.651054 4.28351 1.00617 4.35317 1.39877L4.86189 4.2587H22.3334C22.5775 4.2587 22.8187 4.31351 23.0398 4.41926C23.2609 4.52501 23.4565 4.67911 23.6129 4.87068C23.7693 5.06224 23.8827 5.28658 23.9449 5.52785C24.0072 5.76911 24.0168 6.02141 23.9731 6.2669L22.6097 13.9326C22.54 14.3252 22.3376 14.6803 22.0379 14.936C21.7382 15.1916 21.3601 15.3316 20.9698 15.3313H20.9699Z" fill="currentColor"/>
</svg>
