<svg width="47" height="35" viewBox="0 0 47 35" fill="none" xmlns="http://www.w3.org/2000/svg">
<path fill-rule="evenodd" clip-rule="evenodd" d="M1.46924 3.36364C1.46924 2.20887 2.40537 1.27274 3.56015 1.27274H43.2874C44.4422 1.27274 45.3783 2.20887 45.3783 3.36364V31.5909C45.3783 32.7457 44.4422 33.6818 43.2874 33.6818H3.56015C2.40537 33.6818 1.46924 32.7457 1.46924 31.5909V3.36364Z" stroke="currentColor" stroke-width="2.09091" stroke-linecap="round" stroke-linejoin="round"/>
<path d="M1.46924 18H45.3783" stroke="currentColor" stroke-width="2.09091" stroke-linejoin="round"/>
<path d="M23.4238 33.6818V18" stroke="currentColor" stroke-width="2.09091" stroke-linejoin="round"/>
<path fill-rule="evenodd" clip-rule="evenodd" d="M32.8333 13.8182C30.7424 15.9091 26.6357 17.1185 23.9023 17.8533C24.6354 15.1194 25.336 11.3405 27.0833 9.11364C29.1743 6.5 32.3106 7.02273 33.3561 8.06818C34.4015 9.11364 35.1701 11.4814 32.8333 13.8182Z" stroke="currentColor" stroke-width="2.09091" stroke-linecap="round" stroke-linejoin="round"/>
<path d="M23.9468 18C25.6892 20.0909 31.3695 24.7955 33.8786 26.8864" stroke="currentColor" stroke-width="2.09091"/>
<path d="M23.5454 18.8629C24.1031 19.0128 24.6766 18.6824 24.8265 18.1247C24.9763 17.5672 24.6459 16.9936 24.0883 16.8437L23.5454 18.8629ZM14.3209 15.0802C15.6591 16.4183 17.3465 17.1774 18.9733 17.6942C19.7899 17.9537 20.6113 18.158 21.3836 18.3405C22.1694 18.5263 22.8826 18.6848 23.5454 18.8629L24.0883 16.8437C23.3844 16.6545 22.6118 16.4823 21.8646 16.3057C21.104 16.1259 20.3452 15.9362 19.6063 15.7015C18.1224 15.2301 16.798 14.6003 15.7994 13.6017L14.3209 15.0802ZM23.9413 12.6687C23.6398 9.65299 21.8705 7.72381 19.8853 6.83779C18.9054 6.40048 17.8615 6.21114 16.9027 6.27377C15.956 6.33555 15.0051 6.6518 14.3247 7.32518L15.7957 8.81119C16.0148 8.59426 16.4283 8.40001 17.0388 8.36018C17.6372 8.32118 18.3431 8.43922 19.0331 8.74721C20.388 9.35179 21.6397 10.6652 21.8609 12.8768L23.9413 12.6687ZM14.3247 7.32518C13.5718 8.07048 12.8617 9.26335 12.6893 10.6519C12.5105 12.0913 12.9206 13.6798 14.3209 15.0802L15.7994 13.6017C14.863 12.6653 14.6635 11.7207 14.7642 10.9095C14.8713 10.0476 15.3296 9.27255 15.7957 8.81119L14.3247 7.32518Z" fill="currentColor"/>
<path d="M23.4237 18C20.6358 18.5227 15.2692 24.0636 14.0146 27.4091" stroke="currentColor" stroke-width="2.09091"/>
</svg>
