<svg width="47" height="46" viewBox="0 0 47 46" fill="none" xmlns="http://www.w3.org/2000/svg">
<path d="M15.7964 30.6091L31.1296 15.2759" stroke="currentColor" stroke-width="2.09091" stroke-linecap="round" stroke-linejoin="round"/>
<path d="M14.8384 17.1925C14.8384 17.955 15.1412 18.6863 15.6804 19.2254C16.2196 19.7646 16.9508 20.0675 17.7134 20.0675C18.4758 20.0675 19.2071 19.7646 19.7463 19.2254C20.2854 18.6863 20.5884 17.955 20.5884 17.1925C20.5884 16.4301 20.2854 15.6988 19.7463 15.1596C19.2071 14.6204 18.4758 14.3175 17.7134 14.3175C16.9508 14.3175 16.2196 14.6204 15.6804 15.1596C15.1412 15.6988 14.8384 16.4301 14.8384 17.1925Z" stroke="currentColor" stroke-width="2.09091" stroke-linecap="round" stroke-linejoin="round"/>
<path d="M26.3384 28.6925C26.3384 29.455 26.6412 30.1863 27.1804 30.7254C27.7196 31.2646 28.4508 31.5675 29.2134 31.5675C29.9758 31.5675 30.7071 31.2646 31.2463 30.7254C31.7854 30.1863 32.0884 29.455 32.0884 28.6925C32.0884 27.9301 31.7854 27.1988 31.2463 26.6596C30.7071 26.1204 29.9758 25.8175 29.2134 25.8175C28.4508 25.8175 27.7196 26.1204 27.1804 26.6596C26.6412 27.1988 26.3384 27.9301 26.3384 28.6925Z" stroke="currentColor" stroke-width="2.09091" stroke-linecap="round" stroke-linejoin="round"/>
<path d="M45.4472 23C45.4443 21.4634 44.9797 19.9631 44.1136 18.6938C43.2476 17.4245 42.0201 16.4447 40.5904 15.8815C41.2065 14.473 41.3836 12.9114 41.0985 11.4007C40.8134 9.88996 40.0794 8.50031 38.9923 7.41322C37.9052 6.32612 36.5156 5.59211 35.0049 5.30702C33.4942 5.02193 31.9326 5.19902 30.5241 5.81516C29.9632 4.38395 28.9839 3.15504 27.7141 2.28879C26.4442 1.42254 24.9427 0.959183 23.4056 0.959183C21.8683 0.959183 20.3668 1.42254 19.097 2.28879C17.8272 3.15504 16.8479 4.38395 16.2871 5.81516C14.8785 5.19902 13.3169 5.02193 11.8062 5.30702C10.2955 5.59211 8.90588 6.32612 7.81879 7.41322C6.73169 8.50031 5.99767 9.88996 5.71258 11.4007C5.42749 12.9114 5.60458 14.473 6.22073 15.8815C4.78952 16.4424 3.56061 17.4217 2.69436 18.6915C1.8281 19.9613 1.36475 21.4629 1.36475 23C1.36475 24.5371 1.8281 26.0387 2.69436 27.3085C3.56061 28.5783 4.78952 29.5576 6.22073 30.1185C5.60458 31.527 5.42749 33.0886 5.71258 34.5993C5.99767 36.11 6.73169 37.4997 7.81879 38.5868C8.90588 39.6738 10.2955 40.4079 11.8062 40.693C13.3169 40.978 14.8785 40.8009 16.2871 40.1849C16.8479 41.616 17.8272 42.8449 19.097 43.7112C20.3668 44.5774 21.8683 45.0408 23.4056 45.0408C24.9427 45.0408 26.4442 44.5774 27.7141 43.7112C28.9839 42.8449 29.9632 41.616 30.5241 40.1849C31.9326 40.8009 33.4942 40.978 35.0049 40.693C36.5156 40.4079 37.9052 39.6738 38.9923 38.5868C40.0794 37.4997 40.8134 36.11 41.0985 34.5993C41.3836 33.0886 41.2065 31.527 40.5904 30.1185C42.0201 29.5553 43.2476 28.5755 44.1136 27.3062C44.9797 26.0369 45.4443 24.5366 45.4472 23Z" stroke="currentColor" stroke-width="2.09091" stroke-linecap="round" stroke-linejoin="round"/>
</svg>
