<svg width="46" height="46" viewBox="0 0 46 46" fill="none" xmlns="http://www.w3.org/2000/svg">
<path d="M41.5352 24.4375V41.6875C41.5352 42.4499 41.2323 43.1812 40.693 43.7204C40.1539 44.2596 39.4226 44.5625 38.6602 44.5625H7.03516C6.27265 44.5625 5.54139 44.2596 5.00223 43.7204C4.46306 43.1812 4.16016 42.4499 4.16016 41.6875V24.4375" stroke="currentColor" stroke-width="2.09091" stroke-linecap="round" stroke-linejoin="round"/>
<path d="M40.3813 1.4375H5.31399C4.98681 1.43745 4.66938 1.54885 4.41399 1.75337C4.15861 1.95789 3.98052 2.24331 3.90907 2.56259L1.28516 14.375C1.28516 15.5187 1.73951 16.6156 2.54825 17.4244C3.35701 18.2331 4.45391 18.6875 5.59766 18.6875C6.7414 18.6875 7.83831 18.2331 8.64706 17.4244C9.4558 16.6156 9.91016 15.5187 9.91016 14.375C9.91016 15.5187 10.3645 16.6156 11.1733 17.4244C11.982 18.2331 13.0789 18.6875 14.2227 18.6875C15.3664 18.6875 16.4633 18.2331 17.272 17.4244C18.0808 16.6156 18.5352 15.5187 18.5352 14.375C18.5352 15.5187 18.9895 16.6156 19.7983 17.4244C20.607 18.2331 21.7039 18.6875 22.8477 18.6875C23.9914 18.6875 25.0883 18.2331 25.897 17.4244C26.7058 16.6156 27.1602 15.5187 27.1602 14.375C27.1602 15.5187 27.6145 16.6156 28.4233 17.4244C29.232 18.2331 30.3289 18.6875 31.4727 18.6875C32.6164 18.6875 33.7133 18.2331 34.522 17.4244C35.3308 16.6156 35.7852 15.5187 35.7852 14.375C35.7852 15.5187 36.2395 16.6156 37.0483 17.4244C37.857 18.2331 38.9539 18.6875 40.0977 18.6875C41.2414 18.6875 42.3383 18.2331 43.147 17.4244C43.9558 16.6156 44.4102 15.5187 44.4102 14.375L41.7843 2.56259C41.7136 2.2433 41.536 1.95772 41.2808 1.75312C41.0257 1.54854 40.7083 1.43719 40.3813 1.4375Z" stroke="currentColor" stroke-width="2.09091" stroke-linecap="round" stroke-linejoin="round"/>
<path d="M35.7852 31.625C35.7852 30.1 35.1793 28.6375 34.101 27.5591C33.0226 26.4808 31.5602 25.875 30.0352 25.875C28.5102 25.875 27.0477 26.4808 25.9693 27.5591C24.891 28.6375 24.2852 30.1 24.2852 31.625V44.5625H35.7852V31.625Z" stroke="currentColor" stroke-width="2.09091" stroke-linecap="round" stroke-linejoin="round"/>
<path d="M9.91016 30.1875H18.5352V38.8125H9.91016V30.1875Z" stroke="currentColor" stroke-width="2.09091" stroke-linecap="round" stroke-linejoin="round"/>
</svg>
