<svg width="21" height="21" viewBox="0 0 21 21" fill="none" xmlns="http://www.w3.org/2000/svg">
<path fill-rule="evenodd" clip-rule="evenodd" d="M20.9722 19.3332L15.0078 13.3688C16.0633 11.9712 16.6892 10.231 16.6892 8.34462C16.6892 3.73601 12.9532 0 8.34462 0C3.73601 0 0 3.73601 0 8.34462C0 12.9532 3.73601 16.6892 8.34462 16.6892C10.231 16.6892 11.9712 16.0633 13.3688 15.0078L19.3332 20.9722L20.9722 19.3332ZM14.3717 8.34457C14.3717 11.673 11.6735 14.3712 8.34503 14.3712C5.01659 14.3712 2.31836 11.673 2.31836 8.34457C2.31836 5.01613 5.01659 2.3179 8.34503 2.3179C11.6735 2.3179 14.3717 5.01613 14.3717 8.34457Z" fill="currentColor"/>
</svg>
