<svg width="16" height="16" viewBox="0 0 16 16" fill="none" xmlns="http://www.w3.org/2000/svg">
<path fill-rule="evenodd" clip-rule="evenodd" d="M10.7099 7.11828C9.98508 7.99038 9.08185 8.42642 8.00023 8.42642C6.91861 8.42642 6.01397 7.98896 5.28628 7.11404C4.55859 6.23911 4.19475 5.15043 4.19475 3.84795C4.19475 3.1684 4.36747 2.53133 4.71291 1.93672C5.05835 1.34211 5.52412 0.870675 6.11023 0.522404C6.69635 0.174133 7.32634 0 8.00023 0C8.67412 0 9.30411 0.174133 9.89023 0.522404C10.4763 0.870675 10.9421 1.34211 11.2876 1.93672C11.633 2.53133 11.8057 3.1684 11.8057 3.84795C11.8057 5.15043 11.4405 6.24053 10.7099 7.11828ZM9.73308 2.08112C9.23474 1.57146 8.65713 1.31663 8.00023 1.31663C7.34333 1.31663 6.76572 1.57004 6.26738 2.07687C5.76904 2.58371 5.51987 3.17406 5.51987 3.84795C5.51987 4.77667 5.7563 5.55248 6.22915 6.17541C6.70201 6.79833 7.29236 7.10979 8.00023 7.10979C8.7081 7.10979 9.29845 6.79833 9.77131 6.17541C10.2442 5.55248 10.4806 4.77667 10.4806 3.84795C10.4806 3.17406 10.2314 2.58512 9.73308 2.08112ZM2.30051 15.2219H0.941406L1.06033 13.8288C1.20756 12.4358 1.8772 11.3683 3.06925 10.6265C4.2613 9.88461 5.90494 9.5137 8.00023 9.5137C10.0955 9.5137 11.7392 9.8832 12.9312 10.6222C14.1233 11.3612 14.7929 12.4273 14.9401 13.8203L15.0591 15.2219H13.7L13.581 13.9478C13.5301 13.4607 13.3786 13.029 13.1266 12.6524C12.8746 12.2758 12.5674 11.9771 12.2049 11.7562C11.8425 11.5354 11.4164 11.3541 10.9265 11.2126C10.4367 11.071 9.95819 10.9747 9.49099 10.9238C9.0238 10.8728 8.52688 10.8473 8.00023 10.8473C7.47358 10.8473 6.97666 10.8728 6.50947 10.9238C6.04227 10.9747 5.56376 11.071 5.07392 11.2126C4.58407 11.3541 4.15794 11.5368 3.79552 11.7605C3.43309 11.9841 3.12588 12.2829 2.87388 12.6566C2.62188 13.0304 2.47039 13.4636 2.41943 13.9563L2.30051 15.2219Z" fill="currentColor"/>
</svg>
