<svg width="35" height="46" viewBox="0 0 35 46" fill="none" xmlns="http://www.w3.org/2000/svg">
<path d="M1.12598 39.2916C1.12598 40.8166 1.73178 42.2792 2.81011 43.3575C3.88844 44.4359 5.35098 45.0416 6.87599 45.0416C8.40099 45.0416 9.86348 44.4359 10.9419 43.3575C12.0201 42.2792 12.626 40.8166 12.626 39.2916C12.626 37.7666 12.0201 36.3041 10.9419 35.2257C9.86348 34.1475 8.40099 33.5416 6.87599 33.5416C5.35098 33.5416 3.88844 34.1475 2.81011 35.2257C1.73178 36.3041 1.12598 37.7666 1.12598 39.2916Z" stroke="currentColor" stroke-width="2.09091" stroke-linecap="round" stroke-linejoin="round"/>
<path d="M8.79298 33.902V2.87499C8.79298 2.36666 8.591 1.87916 8.23157 1.51971C7.87214 1.16026 7.38465 0.958328 6.87635 0.958328H3.04297" stroke="currentColor" stroke-width="2.09091" stroke-linecap="round" stroke-linejoin="round"/>
<path d="M12.2676 41.2084H29.1055C29.5997 41.2083 30.075 41.3992 30.4318 41.7411L33.8818 45.0416" stroke="currentColor" stroke-width="2.09091" stroke-linecap="round" stroke-linejoin="round"/>
<path d="M16.4593 37.375H29.876C30.3843 37.375 30.8718 37.173 31.2313 36.8136C31.5907 36.4542 31.7926 35.9667 31.7926 35.4584V22.0416C31.7926 21.5333 31.5907 21.0458 31.2313 20.6864C30.8718 20.327 30.3843 20.125 29.876 20.125H12.626V30.6666" stroke="currentColor" stroke-width="2.09091" stroke-linecap="round" stroke-linejoin="round"/>
<path d="M26.0426 12.4584C26.0426 11.95 25.8407 11.4625 25.4813 11.103C25.1218 10.7436 24.6343 10.5416 24.126 10.5416H14.5426C14.0343 10.5416 13.5468 10.7436 13.1874 11.103C12.8279 11.4625 12.626 11.95 12.626 12.4584V20.125H26.0426V12.4584Z" stroke="currentColor" stroke-width="2.09091" stroke-linecap="round" stroke-linejoin="round"/>
<path d="M27.9593 33.5416H24.126" stroke="currentColor" stroke-width="2.09091" stroke-linecap="round" stroke-linejoin="round"/>
<path d="M18.3756 16.2916H16.459" stroke="currentColor" stroke-width="2.09091" stroke-linecap="round" stroke-linejoin="round"/>
</svg>
