<svg width="17" height="16" viewBox="0 0 17 16" fill="none" xmlns="http://www.w3.org/2000/svg">
<path d="M16.1991 5.61612C16.3076 5.79562 16.3198 6.0205 16.2313 6.21164L12.2961 14.7095C12.1972 14.9231 11.9893 15.0588 11.7613 15.0588H8.57387H8.00621H4.81876C4.59076 15.0588 4.38286 14.9231 4.28394 14.7095L0.348749 6.21164C0.260257 6.0205 0.272429 5.79562 0.381015 5.61612C0.489602 5.43623 0.679531 5.3274 0.883565 5.3274H3.52782C3.81986 2.87533 5.82255 0.968443 8.25442 0.943647C8.26251 0.943295 8.27009 0.941162 8.27825 0.941162C8.28224 0.941162 8.28605 0.941789 8.29004 0.941789C8.29402 0.941789 8.29784 0.941162 8.30183 0.941162C8.30999 0.941162 8.31757 0.943295 8.32566 0.943647C10.7575 0.968443 12.7602 2.87533 13.0523 5.3274H15.6965C15.9005 5.3274 16.0905 5.43623 16.1991 5.61612ZM8.29004 2.17538C6.49779 2.18141 5.01137 3.54593 4.72734 5.3274H8.26202H8.31806H11.8527C11.5687 3.54593 10.0823 2.18141 8.29004 2.17538ZM11.3882 13.8252L14.7523 6.561H8.31806H8.26202H1.8278L5.19185 13.8252H8.00621H8.57387H11.3882Z" fill="currentColor"/>
</svg>
